# 3ds Max Wavefront OBJ Exporter v0.97b - (c)2007 guruware
# File Created: 26.04.2016 04:32:56

mtllib InvincibilityPickUp.mtl

#
# object Box001
#

v  -0.2500 0.1334 0.2500
v  -0.2500 0.1334 0.1500
v  -0.1500 0.0450 0.1500
v  -0.1500 0.0450 0.2500
v  -0.0356 0.0000 0.1500
v  -0.0356 0.0000 0.2500
v  0.0356 0.0000 0.1500
v  0.0356 0.0000 0.2500
v  0.1500 0.0450 0.1500
v  0.1500 0.0450 0.2500
v  0.2500 0.1334 0.1500
v  0.2500 0.1334 0.2500
v  -0.2500 0.1334 0.0500
v  -0.1500 0.0450 0.0500
v  -0.0356 0.0000 0.0500
v  0.0356 0.0000 0.0500
v  0.1500 0.0450 0.0500
v  0.2500 0.1334 0.0500
v  -0.2500 0.1334 -0.0500
v  -0.1500 0.0450 -0.0500
v  -0.0356 0.0000 -0.0500
v  0.0356 0.0000 -0.0500
v  0.1500 0.0450 -0.0500
v  0.2500 0.1334 -0.0500
v  -0.2500 0.1334 -0.1500
v  -0.1500 0.0450 -0.1500
v  -0.0356 0.0000 -0.1500
v  0.0356 0.0000 -0.1500
v  0.1500 0.0450 -0.1500
v  0.2500 0.1334 -0.1500
v  -0.2500 0.1334 -0.2500
v  -0.1500 0.0450 -0.2500
v  -0.0356 0.0000 -0.2500
v  0.0356 0.0000 -0.2500
v  0.1500 0.0450 -0.2500
v  0.2500 0.1334 -0.2500
v  -0.2500 0.5000 0.2500
v  -0.1500 0.4070 0.2500
v  -0.1500 0.4070 0.1500
v  -0.2500 0.5000 0.1500
v  -0.0500 0.5000 0.2500
v  -0.0500 0.5000 0.1500
v  0.0500 0.5000 0.2500
v  0.0500 0.5000 0.1500
v  0.1500 0.4070 0.2500
v  0.1500 0.4070 0.1500
v  0.2500 0.5000 0.2500
v  0.2500 0.5000 0.1500
v  -0.1500 0.4070 0.0500
v  -0.2500 0.5000 0.0500
v  -0.0500 0.5000 0.0500
v  0.0500 0.5000 0.0500
v  0.1500 0.4070 0.0500
v  0.2500 0.5000 0.0500
v  -0.1500 0.4070 -0.0500
v  -0.2500 0.5000 -0.0500
v  -0.0500 0.5000 -0.0500
v  0.0500 0.5000 -0.0500
v  0.1500 0.4070 -0.0500
v  0.2500 0.5000 -0.0500
v  -0.1500 0.4070 -0.1500
v  -0.2500 0.5000 -0.1500
v  -0.0500 0.5000 -0.1500
v  0.0500 0.5000 -0.1500
v  0.1500 0.4070 -0.1500
v  0.2500 0.5000 -0.1500
v  -0.1500 0.4070 -0.2500
v  -0.2500 0.5000 -0.2500
v  -0.0500 0.5000 -0.2500
v  0.0500 0.5000 -0.2500
v  0.1500 0.4070 -0.2500
v  0.2500 0.5000 -0.2500
v  -0.1500 0.1391 0.2500
v  -0.2500 0.1391 0.2500
v  -0.0500 0.1391 0.2500
v  0.0500 0.1391 0.2500
v  0.1500 0.1391 0.2500
v  0.2500 0.1391 0.2500
v  -0.1500 0.2000 0.2500
v  -0.2500 0.2000 0.2500
v  -0.0500 0.2000 0.2500
v  0.0500 0.2000 0.2500
v  0.1500 0.2000 0.2500
v  0.2500 0.2000 0.2500
v  -0.1500 0.3000 0.2500
v  -0.2500 0.3000 0.2500
v  -0.0500 0.3000 0.2500
v  0.0500 0.3000 0.2500
v  0.1500 0.3000 0.2500
v  0.2500 0.3000 0.2500
v  -0.1500 0.4000 0.2500
v  -0.2500 0.4000 0.2500
v  -0.0500 0.4000 0.2500
v  0.0500 0.4000 0.2500
v  0.1500 0.4000 0.2500
v  0.2500 0.4000 0.2500
v  0.2500 0.1391 0.1500
v  0.2500 0.1391 0.0500
v  0.2500 0.1391 -0.0500
v  0.2500 0.1391 -0.1500
v  0.2500 0.1391 -0.2500
v  0.2500 0.2000 0.1500
v  0.2500 0.2000 0.0500
v  0.2500 0.2000 -0.0500
v  0.2500 0.2000 -0.1500
v  0.2500 0.2000 -0.2500
v  0.2500 0.3000 0.1500
v  0.2500 0.3000 0.0500
v  0.2500 0.3000 -0.0500
v  0.2500 0.3000 -0.1500
v  0.2500 0.3000 -0.2500
v  0.2500 0.4000 0.1500
v  0.2500 0.4000 0.0500
v  0.2500 0.4000 -0.0500
v  0.2500 0.4000 -0.1500
v  0.2500 0.4000 -0.2500
v  0.1500 0.1391 -0.2500
v  0.0500 0.1391 -0.2500
v  -0.0500 0.1391 -0.2500
v  -0.1500 0.1391 -0.2500
v  -0.2500 0.1391 -0.2500
v  0.1500 0.2000 -0.2500
v  0.0500 0.2000 -0.2500
v  -0.0500 0.2000 -0.2500
v  -0.1500 0.2000 -0.2500
v  -0.2500 0.2000 -0.2500
v  0.1500 0.3000 -0.2500
v  0.0500 0.3000 -0.2500
v  -0.0500 0.3000 -0.2500
v  -0.1500 0.3000 -0.2500
v  -0.2500 0.3000 -0.2500
v  0.1500 0.4000 -0.2500
v  0.0500 0.4000 -0.2500
v  -0.0500 0.4000 -0.2500
v  -0.1500 0.4000 -0.2500
v  -0.2500 0.4000 -0.2500
v  -0.2500 0.1391 -0.1500
v  -0.2500 0.1391 -0.0500
v  -0.2500 0.1391 0.0500
v  -0.2500 0.1391 0.1500
v  -0.2500 0.2000 -0.1500
v  -0.2500 0.2000 -0.0500
v  -0.2500 0.2000 0.0500
v  -0.2500 0.2000 0.1500
v  -0.2500 0.3000 -0.1500
v  -0.2500 0.3000 -0.0500
v  -0.2500 0.3000 0.0500
v  -0.2500 0.3000 0.1500
v  -0.2500 0.4000 -0.1500
v  -0.2500 0.4000 -0.0500
v  -0.2500 0.4000 0.0500
v  -0.2500 0.4000 0.1500
# 152 vertices

vn -0.6622 -0.7494 -0.0000
vn -0.5220 -0.8530 -0.0000
vn -0.1862 -0.9825 -0.0000
vn 0.1862 -0.9825 -0.0000
vn 0.5220 -0.8530 -0.0000
vn 0.6622 -0.7494 -0.0000
vn 0.6811 0.7322 -0.0000
vn -0.0000 1.0000 -0.0000
vn -0.3659 0.9306 -0.0000
vn 0.3659 0.9306 -0.0000
vn 0.0000 1.0000 -0.0000
vn -0.6811 0.7322 -0.0000
vn 0.0000 0.0000 1.0000
vn 1.0000 0.0000 -0.0000
vn 0.0000 0.0000 -1.0000
vn -1.0000 0.0000 -0.0000
# 16 vertex normals

vt 1.0000 0.0000 0.0000
vt 1.0000 0.2000 0.0000
vt 0.8000 0.2000 0.0000
vt 0.8000 0.0000 0.0000
vt 0.6000 0.2000 0.0000
vt 0.6000 0.0000 0.0000
vt 0.4000 0.2000 0.0000
vt 0.4000 0.0000 0.0000
vt 0.2000 0.2000 0.0000
vt 0.2000 0.0000 0.0000
vt 0.0000 0.2000 0.0000
vt 0.0000 0.0000 0.0000
vt 1.0000 0.4000 0.0000
vt 0.8000 0.4000 0.0000
vt 0.6000 0.4000 0.0000
vt 0.4000 0.4000 0.0000
vt 0.2000 0.4000 0.0000
vt 0.0000 0.4000 0.0000
vt 1.0000 0.6000 0.0000
vt 0.8000 0.6000 0.0000
vt 0.6000 0.6000 0.0000
vt 0.4000 0.6000 0.0000
vt 0.2000 0.6000 0.0000
vt 0.0000 0.6000 0.0000
vt 1.0000 0.8000 0.0000
vt 0.8000 0.8000 0.0000
vt 0.6000 0.8000 0.0000
vt 0.4000 0.8000 0.0000
vt 0.2000 0.8000 0.0000
vt 0.0000 0.8000 0.0000
vt 1.0000 1.0000 0.0000
vt 0.8000 1.0000 0.0000
vt 0.6000 1.0000 0.0000
vt 0.4000 1.0000 0.0000
vt 0.2000 1.0000 0.0000
vt 0.0000 1.0000 0.0000
# 36 texture coords

g Box001
usemtl wire_028149177
s 2
f 1/1/1 2/2/1 3/3/2 
f 3/3/2 4/4/2 1/1/1 
f 4/4/2 3/3/2 5/5/3 
f 5/5/3 6/6/3 4/4/2 
f 6/6/3 5/5/3 7/7/4 
f 7/7/4 8/8/4 6/6/3 
f 8/8/4 7/7/4 9/9/5 
f 9/9/5 10/10/5 8/8/4 
f 10/10/5 9/9/5 11/11/6 
f 11/11/6 12/12/6 10/10/5 
f 2/2/1 13/13/1 14/14/2 
f 14/14/2 3/3/2 2/2/1 
f 3/3/2 14/14/2 15/15/3 
f 15/15/3 5/5/3 3/3/2 
f 5/5/3 15/15/3 16/16/4 
f 16/16/4 7/7/4 5/5/3 
f 7/7/4 16/16/4 17/17/5 
f 17/17/5 9/9/5 7/7/4 
f 9/9/5 17/17/5 18/18/6 
f 18/18/6 11/11/6 9/9/5 
f 13/13/1 19/19/1 20/20/2 
f 20/20/2 14/14/2 13/13/1 
f 14/14/2 20/20/2 21/21/3 
f 21/21/3 15/15/3 14/14/2 
f 15/15/3 21/21/3 22/22/4 
f 22/22/4 16/16/4 15/15/3 
f 16/16/4 22/22/4 23/23/5 
f 23/23/5 17/17/5 16/16/4 
f 17/17/5 23/23/5 24/24/6 
f 24/24/6 18/18/6 17/17/5 
f 19/19/1 25/25/1 26/26/2 
f 26/26/2 20/20/2 19/19/1 
f 20/20/2 26/26/2 27/27/3 
f 27/27/3 21/21/3 20/20/2 
f 21/21/3 27/27/3 28/28/4 
f 28/28/4 22/22/4 21/21/3 
f 22/22/4 28/28/4 29/29/5 
f 29/29/5 23/23/5 22/22/4 
f 23/23/5 29/29/5 30/30/6 
f 30/30/6 24/24/6 23/23/5 
f 25/25/1 31/31/1 32/32/2 
f 32/32/2 26/26/2 25/25/1 
f 26/26/2 32/32/2 33/33/3 
f 33/33/3 27/27/3 26/26/2 
f 27/27/3 33/33/3 34/34/4 
f 34/34/4 28/28/4 27/27/3 
f 28/28/4 34/34/4 35/35/5 
f 35/35/5 29/29/5 28/28/4 
f 29/29/5 35/35/5 36/36/6 
f 36/36/6 30/30/6 29/29/5 
s 4
f 37/12/7 38/10/8 39/9/8 
f 39/9/8 40/11/7 37/12/7 
f 38/10/8 41/8/9 42/7/9 
f 42/7/9 39/9/8 38/10/8 
f 41/8/9 43/6/10 44/5/10 
f 44/5/10 42/7/9 41/8/9 
f 43/6/10 45/4/11 46/3/8 
f 46/3/8 44/5/10 43/6/10 
f 45/4/11 47/1/12 48/2/12 
f 48/2/12 46/3/8 45/4/11 
f 40/11/7 39/9/8 49/17/11 
f 49/17/11 50/18/7 40/11/7 
f 39/9/8 42/7/9 51/16/9 
f 51/16/9 49/17/11 39/9/8 
f 42/7/9 44/5/10 52/15/10 
f 52/15/10 51/16/9 42/7/9 
f 44/5/10 46/3/8 53/14/8 
f 53/14/8 52/15/10 44/5/10 
f 46/3/8 48/2/12 54/13/12 
f 54/13/12 53/14/8 46/3/8 
f 50/18/7 49/17/11 55/23/11 
f 55/23/11 56/24/7 50/18/7 
f 49/17/11 51/16/9 57/22/9 
f 57/22/9 55/23/11 49/17/11 
f 51/16/9 52/15/10 58/21/10 
f 58/21/10 57/22/9 51/16/9 
f 52/15/10 53/14/8 59/20/8 
f 59/20/8 58/21/10 52/15/10 
f 53/14/8 54/13/12 60/19/12 
f 60/19/12 59/20/8 53/14/8 
f 56/24/7 55/23/11 61/29/11 
f 61/29/11 62/30/7 56/24/7 
f 55/23/11 57/22/9 63/28/9 
f 63/28/9 61/29/11 55/23/11 
f 57/22/9 58/21/10 64/27/10 
f 64/27/10 63/28/9 57/22/9 
f 58/21/10 59/20/8 65/26/11 
f 65/26/11 64/27/10 58/21/10 
f 59/20/8 60/19/12 66/25/12 
f 66/25/12 65/26/11 59/20/8 
f 62/30/7 61/29/11 67/35/8 
f 67/35/8 68/36/7 62/30/7 
f 61/29/11 63/28/9 69/34/9 
f 69/34/9 67/35/8 61/29/11 
f 63/28/9 64/27/10 70/33/10 
f 70/33/10 69/34/9 63/28/9 
f 64/27/10 65/26/11 71/32/11 
f 71/32/11 70/33/10 64/27/10 
f 65/26/11 66/25/12 72/31/12 
f 72/31/12 71/32/11 65/26/11 
s 8
f 1/12/13 4/10/13 73/9/13 
f 73/9/13 74/11/13 1/12/13 
f 4/10/13 6/8/13 75/7/13 
f 75/7/13 73/9/13 4/10/13 
f 6/8/13 8/6/13 76/5/13 
f 76/5/13 75/7/13 6/8/13 
f 8/6/13 10/4/13 77/3/13 
f 77/3/13 76/5/13 8/6/13 
f 10/4/13 12/1/13 78/2/13 
f 78/2/13 77/3/13 10/4/13 
f 74/11/13 73/9/13 79/17/13 
f 79/17/13 80/18/13 74/11/13 
f 73/9/13 75/7/13 81/16/13 
f 81/16/13 79/17/13 73/9/13 
f 75/7/13 76/5/13 82/15/13 
f 82/15/13 81/16/13 75/7/13 
f 76/5/13 77/3/13 83/14/13 
f 83/14/13 82/15/13 76/5/13 
f 77/3/13 78/2/13 84/13/13 
f 84/13/13 83/14/13 77/3/13 
f 80/18/13 79/17/13 85/23/13 
f 85/23/13 86/24/13 80/18/13 
f 79/17/13 81/16/13 87/22/13 
f 87/22/13 85/23/13 79/17/13 
f 81/16/13 82/15/13 88/21/13 
f 88/21/13 87/22/13 81/16/13 
f 82/15/13 83/14/13 89/20/13 
f 89/20/13 88/21/13 82/15/13 
f 83/14/13 84/13/13 90/19/13 
f 90/19/13 89/20/13 83/14/13 
f 86/24/13 85/23/13 91/29/13 
f 91/29/13 92/30/13 86/24/13 
f 85/23/13 87/22/13 93/28/13 
f 93/28/13 91/29/13 85/23/13 
f 87/22/13 88/21/13 94/27/13 
f 94/27/13 93/28/13 87/22/13 
f 88/21/13 89/20/13 95/26/13 
f 95/26/13 94/27/13 88/21/13 
f 89/20/13 90/19/13 96/25/13 
f 96/25/13 95/26/13 89/20/13 
f 92/30/13 91/29/13 38/35/13 
f 38/35/13 37/36/13 92/30/13 
f 91/29/13 93/28/13 41/34/13 
f 41/34/13 38/35/13 91/29/13 
f 93/28/13 94/27/13 43/33/13 
f 43/33/13 41/34/13 93/28/13 
f 94/27/13 95/26/13 45/32/13 
f 45/32/13 43/33/13 94/27/13 
f 95/26/13 96/25/13 47/31/13 
f 47/31/13 45/32/13 95/26/13 
s 16
f 12/12/14 11/10/14 97/9/14 
f 97/9/14 78/11/14 12/12/14 
f 11/10/14 18/8/14 98/7/14 
f 98/7/14 97/9/14 11/10/14 
f 18/8/14 24/6/14 99/5/14 
f 99/5/14 98/7/14 18/8/14 
f 24/6/14 30/4/14 100/3/14 
f 100/3/14 99/5/14 24/6/14 
f 30/4/14 36/1/14 101/2/14 
f 101/2/14 100/3/14 30/4/14 
f 78/11/14 97/9/14 102/17/14 
f 102/17/14 84/18/14 78/11/14 
f 97/9/14 98/7/14 103/16/14 
f 103/16/14 102/17/14 97/9/14 
f 98/7/14 99/5/14 104/15/14 
f 104/15/14 103/16/14 98/7/14 
f 99/5/14 100/3/14 105/14/14 
f 105/14/14 104/15/14 99/5/14 
f 100/3/14 101/2/14 106/13/14 
f 106/13/14 105/14/14 100/3/14 
f 84/18/14 102/17/14 107/23/14 
f 107/23/14 90/24/14 84/18/14 
f 102/17/14 103/16/14 108/22/14 
f 108/22/14 107/23/14 102/17/14 
f 103/16/14 104/15/14 109/21/14 
f 109/21/14 108/22/14 103/16/14 
f 104/15/14 105/14/14 110/20/14 
f 110/20/14 109/21/14 104/15/14 
f 105/14/14 106/13/14 111/19/14 
f 111/19/14 110/20/14 105/14/14 
f 90/24/14 107/23/14 112/29/14 
f 112/29/14 96/30/14 90/24/14 
f 107/23/14 108/22/14 113/28/14 
f 113/28/14 112/29/14 107/23/14 
f 108/22/14 109/21/14 114/27/14 
f 114/27/14 113/28/14 108/22/14 
f 109/21/14 110/20/14 115/26/14 
f 115/26/14 114/27/14 109/21/14 
f 110/20/14 111/19/14 116/25/14 
f 116/25/14 115/26/14 110/20/14 
f 96/30/14 112/29/14 48/35/14 
f 48/35/14 47/36/14 96/30/14 
f 112/29/14 113/28/14 54/34/14 
f 54/34/14 48/35/14 112/29/14 
f 113/28/14 114/27/14 60/33/14 
f 60/33/14 54/34/14 113/28/14 
f 114/27/14 115/26/14 66/32/14 
f 66/32/14 60/33/14 114/27/14 
f 115/26/14 116/25/14 72/31/14 
f 72/31/14 66/32/14 115/26/14 
s 32
f 36/12/15 35/10/15 117/9/15 
f 117/9/15 101/11/15 36/12/15 
f 35/10/15 34/8/15 118/7/15 
f 118/7/15 117/9/15 35/10/15 
f 34/8/15 33/6/15 119/5/15 
f 119/5/15 118/7/15 34/8/15 
f 33/6/15 32/4/15 120/3/15 
f 120/3/15 119/5/15 33/6/15 
f 32/4/15 31/1/15 121/2/15 
f 121/2/15 120/3/15 32/4/15 
f 101/11/15 117/9/15 122/17/15 
f 122/17/15 106/18/15 101/11/15 
f 117/9/15 118/7/15 123/16/15 
f 123/16/15 122/17/15 117/9/15 
f 118/7/15 119/5/15 124/15/15 
f 124/15/15 123/16/15 118/7/15 
f 119/5/15 120/3/15 125/14/15 
f 125/14/15 124/15/15 119/5/15 
f 120/3/15 121/2/15 126/13/15 
f 126/13/15 125/14/15 120/3/15 
f 106/18/15 122/17/15 127/23/15 
f 127/23/15 111/24/15 106/18/15 
f 122/17/15 123/16/15 128/22/15 
f 128/22/15 127/23/15 122/17/15 
f 123/16/15 124/15/15 129/21/15 
f 129/21/15 128/22/15 123/16/15 
f 124/15/15 125/14/15 130/20/15 
f 130/20/15 129/21/15 124/15/15 
f 125/14/15 126/13/15 131/19/15 
f 131/19/15 130/20/15 125/14/15 
f 111/24/15 127/23/15 132/29/15 
f 132/29/15 116/30/15 111/24/15 
f 127/23/15 128/22/15 133/28/15 
f 133/28/15 132/29/15 127/23/15 
f 128/22/15 129/21/15 134/27/15 
f 134/27/15 133/28/15 128/22/15 
f 129/21/15 130/20/15 135/26/15 
f 135/26/15 134/27/15 129/21/15 
f 130/20/15 131/19/15 136/25/15 
f 136/25/15 135/26/15 130/20/15 
f 116/30/15 132/29/15 71/35/15 
f 71/35/15 72/36/15 116/30/15 
f 132/29/15 133/28/15 70/34/15 
f 70/34/15 71/35/15 132/29/15 
f 133/28/15 134/27/15 69/33/15 
f 69/33/15 70/34/15 133/28/15 
f 134/27/15 135/26/15 67/32/15 
f 67/32/15 69/33/15 134/27/15 
f 135/26/15 136/25/15 68/31/15 
f 68/31/15 67/32/15 135/26/15 
s 64
f 31/12/16 25/10/16 137/9/16 
f 137/9/16 121/11/16 31/12/16 
f 25/10/16 19/8/16 138/7/16 
f 138/7/16 137/9/16 25/10/16 
f 19/8/16 13/6/16 139/5/16 
f 139/5/16 138/7/16 19/8/16 
f 13/6/16 2/4/16 140/3/16 
f 140/3/16 139/5/16 13/6/16 
f 2/4/16 1/1/16 74/2/16 
f 74/2/16 140/3/16 2/4/16 
f 121/11/16 137/9/16 141/17/16 
f 141/17/16 126/18/16 121/11/16 
f 137/9/16 138/7/16 142/16/16 
f 142/16/16 141/17/16 137/9/16 
f 138/7/16 139/5/16 143/15/16 
f 143/15/16 142/16/16 138/7/16 
f 139/5/16 140/3/16 144/14/16 
f 144/14/16 143/15/16 139/5/16 
f 140/3/16 74/2/16 80/13/16 
f 80/13/16 144/14/16 140/3/16 
f 126/18/16 141/17/16 145/23/16 
f 145/23/16 131/24/16 126/18/16 
f 141/17/16 142/16/16 146/22/16 
f 146/22/16 145/23/16 141/17/16 
f 142/16/16 143/15/16 147/21/16 
f 147/21/16 146/22/16 142/16/16 
f 143/15/16 144/14/16 148/20/16 
f 148/20/16 147/21/16 143/15/16 
f 144/14/16 80/13/16 86/19/16 
f 86/19/16 148/20/16 144/14/16 
f 131/24/16 145/23/16 149/29/16 
f 149/29/16 136/30/16 131/24/16 
f 145/23/16 146/22/16 150/28/16 
f 150/28/16 149/29/16 145/23/16 
f 146/22/16 147/21/16 151/27/16 
f 151/27/16 150/28/16 146/22/16 
f 147/21/16 148/20/16 152/26/16 
f 152/26/16 151/27/16 147/21/16 
f 148/20/16 86/19/16 92/25/16 
f 92/25/16 152/26/16 148/20/16 
f 136/30/16 149/29/16 62/35/16 
f 62/35/16 68/36/16 136/30/16 
f 149/29/16 150/28/16 56/34/16 
f 56/34/16 62/35/16 149/29/16 
f 150/28/16 151/27/16 50/33/16 
f 50/33/16 56/34/16 150/28/16 
f 151/27/16 152/26/16 40/32/16 
f 40/32/16 50/33/16 151/27/16 
f 152/26/16 92/25/16 37/31/16 
f 37/31/16 40/32/16 152/26/16 
# 300 faces

