# 3ds Max Wavefront OBJ Exporter v0.97b - (c)2007 guruware
# File Created: 25.04.2016 11:32:39

mtllib FGRamp.mtl

#
# object Ramp
#

v  -2.0000 -1.0000 -0.0000
v  2.0000 0.5000 0.0000
v  2.0000 -1.0000 -0.0000
v  -2.0000 -1.0000 1.5000
v  2.0000 -1.0000 1.5000
v  2.0000 0.5000 1.5000
# 6 vertices

vn 0.0000 0.0000 -1.0000
vn 0.0000 -0.0000 1.0000
vn 0.0000 -1.0000 -0.0000
vn 1.0000 0.0000 -0.0000
vn -0.3511 0.9363 0.0000
# 5 vertex normals

vt 1.0000 0.0000 0.0000
vt 0.0000 1.0000 0.0000
vt 0.0000 0.0000 0.0000
vt 1.0000 1.0000 0.0000
# 4 texture coords

g Ramp
usemtl wire_229166215
s 2
f 1/1/1 2/2/1 3/3/1 
s 4
f 4/3/2 5/1/2 6/4/2 
s 8
f 1/3/3 3/1/3 5/4/3 
f 5/4/3 4/2/3 1/3/3 
s 16
f 3/3/4 2/1/4 6/4/4 
f 6/4/4 5/2/4 3/3/4 
s 96
f 2/3/5 1/1/5 4/4/5 
f 4/4/5 6/2/5 2/3/5 
# 8 faces

