# 3ds Max Wavefront OBJ Exporter v0.97b - (c)2007 guruware
# File Created: 24.02.2016 02:21:30

mtllib PrismaticEnemyShield.mtl

#
# object Sphere001
#

v  -10.7018 55.6005 -0.0000
v  29.6733 27.8002 -81.4305
v  0.0000 27.8002 -70.5209
v  -21.7224 27.8002 -40.7153
v  -29.6733 27.8002 -0.0000
v  -21.7224 27.8002 40.7152
v  -0.0000 27.8002 70.5209
v  29.6733 27.8002 81.4305
v  29.6733 27.8002 0.0000
v  29.6733 -27.8002 -81.4305
v  -0.0000 -27.8002 -70.5209
v  -21.7224 -27.8002 -40.7153
v  -29.6733 -27.8002 -0.0000
v  -21.7224 -27.8002 40.7152
v  -0.0001 -27.8002 70.5209
v  29.6733 -27.8002 81.4305
v  29.6733 -27.8002 0.0000
v  -10.7018 -55.6005 -0.0000
# 18 vertices

vn -0.6204 0.7843 -0.0000
vn -0.2031 0.2930 -0.9343
vn -0.3732 0.4110 -0.8317
vn -0.7660 0.3252 -0.5546
vn -0.9601 0.2796 -0.0000
vn -0.7660 0.3252 0.5546
vn -0.3732 0.4110 0.8317
vn -0.2031 0.2930 0.9343
vn 0.5671 0.8236 0.0000
vn 0.9514 0.3080 0.0000
vn 0.8852 0.4652 0.0000
vn -0.2031 -0.2930 -0.9343
vn -0.3732 -0.4110 -0.8317
vn -0.7660 -0.3252 -0.5546
vn -0.9601 -0.2796 -0.0000
vn -0.7660 -0.3252 0.5546
vn -0.3732 -0.4110 0.8317
vn -0.2031 -0.2930 0.9343
vn 0.9514 -0.3080 0.0000
vn 0.8852 -0.4652 0.0000
vn -0.6204 -0.7843 -0.0000
vn 0.5671 -0.8236 0.0000
# 22 vertex normals

vt 0.0000 1.0000 0.0000
vt 0.0000 0.6667 0.0000
vt 0.0833 0.6667 0.0000
vt 0.0833 1.0000 0.0000
vt 0.1667 0.6667 0.0000
vt 0.1667 1.0000 0.0000
vt 0.2500 0.6667 0.0000
vt 0.2500 1.0000 0.0000
vt 0.3333 0.6667 0.0000
vt 0.3333 1.0000 0.0000
vt 0.4167 0.6667 0.0000
vt 0.4167 1.0000 0.0000
vt 0.5000 0.6667 0.0000
vt 1.0000 0.6667 0.0000
vt 0.0000 0.3333 0.0000
vt 0.0833 0.3333 0.0000
vt 0.1667 0.3333 0.0000
vt 0.2500 0.3333 0.0000
vt 0.3333 0.3333 0.0000
vt 0.4167 0.3333 0.0000
vt 0.5000 0.3333 0.0000
vt 1.0000 0.3333 0.0000
vt 0.0000 0.0000 0.0000
vt 0.0833 0.0000 0.0000
vt 0.1667 0.0000 0.0000
vt 0.2500 0.0000 0.0000
vt 0.3333 0.0000 0.0000
vt 0.4167 0.0000 0.0000
# 28 texture coords

g Sphere001
usemtl wire_225087143
s 1
f 1/1/1 2/2/2 3/3/3 
f 1/4/1 3/3/3 4/5/4 
f 1/6/1 4/5/4 5/7/5 
f 1/8/1 5/7/5 6/9/6 
f 1/10/1 6/9/6 7/11/7 
f 1/12/1 7/11/7 8/13/8 
s 4
f 1/1/9 8/14/10 9/2/11 
s 8
f 1/1/9 9/2/11 2/14/10 
s 1
f 2/2/2 10/15/12 11/16/13 
f 2/2/2 11/16/13 3/3/3 
f 3/3/3 11/16/13 12/17/14 
f 3/3/3 12/17/14 4/5/4 
f 4/5/4 12/17/14 13/18/15 
f 4/5/4 13/18/15 5/7/5 
f 5/7/5 13/18/15 14/19/16 
f 5/7/5 14/19/16 6/9/6 
f 6/9/6 14/19/16 15/20/17 
f 6/9/6 15/20/17 7/11/7 
f 7/11/7 15/20/17 16/21/18 
f 7/11/7 16/21/18 8/13/8 
s 4
f 8/14/10 16/22/19 17/15/20 
f 8/14/10 17/15/20 9/2/11 
s 8
f 9/2/11 17/15/20 10/22/19 
f 9/2/11 10/22/19 2/14/10 
s 1
f 18/23/21 11/16/13 10/15/12 
f 18/24/21 12/17/14 11/16/13 
f 18/25/21 13/18/15 12/17/14 
f 18/26/21 14/19/16 13/18/15 
f 18/27/21 15/20/17 14/19/16 
f 18/28/21 16/21/18 15/20/17 
s 4
f 18/23/22 17/15/20 16/22/19 
s 8
f 18/23/22 10/22/19 17/15/20 
# 32 faces

