# 3ds Max Wavefront OBJ Exporter v0.97b - (c)2007 guruware
# File Created: 22.02.2016 00:51:40

mtllib RevolutingArm.mtl

#
# object Main_Body
#

v  0.0000 36.2739 0.0000
v  0.0000 35.8943 -8.4163
v  -10.3648 35.8943 0.0000
v  0.0000 35.8943 8.4163
v  10.3649 35.8943 0.0000
v  -10.3648 24.5122 0.0000
v  0.0000 24.5122 -8.4020
v  0.0000 24.5122 8.4020
v  10.3649 24.5122 0.0000
v  -10.3648 13.1301 0.0000
v  0.0000 13.1301 -7.2597
v  0.0000 13.1301 7.2597
v  10.3649 13.1301 0.0000
v  -10.3648 1.7480 0.0000
v  0.0000 1.7480 -6.1174
v  0.0000 1.7480 6.1174
v  10.3649 1.7480 0.0000
v  -10.3648 -9.6341 0.0000
v  0.0000 -9.6341 -4.9750
v  0.0000 -9.6341 4.9750
v  10.3649 -9.6341 0.0000
v  -10.3648 -21.0162 0.0000
v  0.0000 -21.0162 -3.8327
v  0.0000 -21.0162 3.8327
v  10.3649 -21.0162 0.0000
v  -10.3648 -32.3984 0.0000
v  0.0000 -32.3984 -2.6904
v  0.0000 -32.3984 2.6904
v  10.3649 -32.3983 0.0000
v  0.0000 -41.1396 0.0000
# 30 vertices

vn -0.0366 0.9983 -0.0450
vn -0.0366 0.9983 0.0450
vn 0.0366 0.9983 0.0450
vn 0.0366 0.9983 -0.0450
vn -0.6304 -0.0000 -0.7763
vn -0.6297 -0.0010 -0.7768
vn -0.6304 -0.0010 0.7763
vn -0.6297 0.0000 0.7768
vn 0.6304 -0.0000 0.7763
vn 0.6297 -0.0010 0.7768
vn 0.6304 -0.0010 -0.7763
vn 0.6297 -0.0000 -0.7768
vn -0.6297 -0.0000 -0.7768
vn -0.5718 -0.0819 -0.8163
vn -0.6278 -0.0777 0.7745
vn -0.5737 -0.0000 0.8191
vn 0.6297 -0.0000 0.7768
vn 0.5718 -0.0819 0.8163
vn 0.6278 -0.0777 -0.7745
vn 0.5737 -0.0000 -0.8191
vn -0.5737 0.0000 -0.8191
vn -0.5064 -0.0861 -0.8580
vn -0.5718 -0.0819 0.8163
vn -0.5083 0.0000 0.8612
vn 0.5737 -0.0000 0.8191
vn 0.5064 -0.0861 0.8580
vn 0.5718 -0.0819 -0.8163
vn 0.5083 -0.0000 -0.8612
vn -0.5083 -0.0000 -0.8612
vn -0.4310 -0.0901 -0.8979
vn -0.5064 -0.0861 0.8580
vn -0.4327 0.0000 0.9015
vn 0.5083 0.0000 0.8612
vn 0.4310 -0.0901 0.8979
vn 0.5064 -0.0861 -0.8580
vn 0.4327 0.0000 -0.9015
vn -0.4327 0.0000 -0.9015
vn -0.3453 -0.0937 -0.9338
vn -0.4310 -0.0901 0.8979
vn -0.3468 0.0000 0.9379
vn 0.4327 -0.0000 0.9015
vn 0.3453 -0.0937 0.9338
vn 0.4310 -0.0901 -0.8979
vn 0.3468 -0.0000 -0.9379
vn -0.3468 -0.0000 -0.9379
vn -0.2501 -0.0967 -0.9634
vn -0.3453 -0.0937 0.9338
vn -0.2512 0.0000 0.9679
vn 0.3468 0.0000 0.9379
vn 0.2501 -0.0967 0.9634
vn 0.3453 -0.0937 -0.9338
vn 0.2512 0.0000 -0.9679
vn -0.2408 -0.2855 -0.9276
vn -0.2408 -0.2855 0.9276
vn 0.2408 -0.2855 0.9276
vn 0.2408 -0.2855 -0.9276
# 56 vertex normals

vt 0.5000 0.5000 0.0000
vt 1.0000 0.5000 0.0000
vt 0.5000 1.0000 0.0000
vt -0.0000 0.5000 0.0000
vt 0.5000 -0.0000 0.0000
vt 0.2500 0.8333 0.0000
vt 0.2500 1.0000 0.0000
vt 0.0000 1.0000 0.0000
vt 0.0000 0.8333 0.0000
vt 0.5000 0.8333 0.0000
vt 0.7500 0.8333 0.0000
vt 0.7500 1.0000 0.0000
vt 1.0000 0.8333 0.0000
vt 1.0000 1.0000 0.0000
vt 0.2500 0.6667 0.0000
vt 0.0000 0.6667 0.0000
vt 0.5000 0.6667 0.0000
vt 0.7500 0.6667 0.0000
vt 1.0000 0.6667 0.0000
vt 0.2500 0.5000 0.0000
vt 0.0000 0.5000 0.0000
vt 0.7500 0.5000 0.0000
vt 0.2500 0.3333 0.0000
vt 0.0000 0.3333 0.0000
vt 0.5000 0.3333 0.0000
vt 0.7500 0.3333 0.0000
vt 1.0000 0.3333 0.0000
vt 0.2500 0.1667 0.0000
vt 0.0000 0.1667 0.0000
vt 0.5000 0.1667 0.0000
vt 0.7500 0.1667 0.0000
vt 1.0000 0.1667 0.0000
vt 0.2500 0.0000 0.0000
vt 0.0000 0.0000 0.0000
vt 0.5000 0.0000 0.0000
vt 0.7500 0.0000 0.0000
vt 1.0000 0.0000 0.0000
# 37 texture coords

g Main_Body
usemtl wire_088144225
s off
f 1/1/1 2/2/1 3/3/1 
f 1/1/2 3/3/2 4/4/2 
f 1/1/3 4/4/3 5/5/3 
f 1/1/4 5/5/4 2/2/4 
f 6/6/5 3/7/5 2/8/5 
f 2/8/6 7/9/6 6/6/6 
f 8/10/7 4/3/7 3/7/7 
f 3/7/8 6/6/8 8/10/8 
f 9/11/9 5/12/9 4/3/9 
f 4/3/10 8/10/10 9/11/10 
f 7/13/11 2/14/11 5/12/11 
f 5/12/12 9/11/12 7/13/12 
f 10/15/13 6/6/13 7/9/13 
f 7/9/14 11/16/14 10/15/14 
f 12/17/15 8/10/15 6/6/15 
f 6/6/16 10/15/16 12/17/16 
f 13/18/17 9/11/17 8/10/17 
f 8/10/18 12/17/18 13/18/18 
f 11/19/19 7/13/19 9/11/19 
f 9/11/20 13/18/20 11/19/20 
f 14/20/21 10/15/21 11/16/21 
f 11/16/22 15/21/22 14/20/22 
f 16/1/23 12/17/23 10/15/23 
f 10/15/24 14/20/24 16/1/24 
f 17/22/25 13/18/25 12/17/25 
f 12/17/26 16/1/26 17/22/26 
f 15/2/27 11/19/27 13/18/27 
f 13/18/28 17/22/28 15/2/28 
f 18/23/29 14/20/29 15/21/29 
f 15/21/30 19/24/30 18/23/30 
f 20/25/31 16/1/31 14/20/31 
f 14/20/32 18/23/32 20/25/32 
f 21/26/33 17/22/33 16/1/33 
f 16/1/34 20/25/34 21/26/34 
f 19/27/35 15/2/35 17/22/35 
f 17/22/36 21/26/36 19/27/36 
f 22/28/37 18/23/37 19/24/37 
f 19/24/38 23/29/38 22/28/38 
f 24/30/39 20/25/39 18/23/39 
f 18/23/40 22/28/40 24/30/40 
f 25/31/41 21/26/41 20/25/41 
f 20/25/42 24/30/42 25/31/42 
f 23/32/43 19/27/43 21/26/43 
f 21/26/44 25/31/44 23/32/44 
f 26/33/45 22/28/45 23/29/45 
f 23/29/46 27/34/46 26/33/46 
f 28/35/47 24/30/47 22/28/47 
f 22/28/48 26/33/48 28/35/48 
f 29/36/49 25/31/49 24/30/49 
f 24/30/50 28/35/50 29/36/50 
f 27/37/51 23/32/51 25/31/51 
f 25/31/52 29/36/52 27/37/52 
f 27/2/53 30/1/53 26/3/53 
f 26/3/54 30/1/54 28/4/54 
f 28/4/55 30/1/55 29/5/55 
f 29/5/56 30/1/56 27/2/56 
# 56 faces

